# xmcd
#
# Track frame offsets:
#	150
#	16228
#	30516
#	43904
#	60379
#	77002
#	94097
#	108489
#	121363
#	137268
#	150626
#	163925
#
# Disc length: 2448 seconds
# Revision: 0
# Processed by: cddbd v1.5.2PL0 Copyright (c) Steve Scherf et al.
# Submitted via: dBpowerAMP V12.0
#
DISCID=8e098e0c
DTITLE=The Goat Roper Rodeo Band - Tall Grass
DYEAR=2019
DGENRE=Country
TTITLE0=Unwrap My Bones
TTITLE1=Desert Flower
TTITLE2=Main street 
TTITLE3=Bright lights and Deadbeats
TTITLE4=High Heel Blues
TTITLE5=Keep on
TTITLE6=The Pulse
TTITLE7=Anyway Anyhow
TTITLE8=Toss and Turn
TTITLE9=I Can't Fly
TTITLE10=Ask For Alice
TTITLE11=Don't Mind The rain
EXTD=
EXTT0=
EXTT1=
EXTT2=
EXTT3=
EXTT4=
EXTT5=
EXTT6=
EXTT7=
EXTT8=
EXTT9=
EXTT10=
EXTT11=
PLAYORDER=
